<svg width="25" height="13" viewBox="0 0 25 13" fill="none" xmlns="http://www.w3.org/2000/svg">
<path d="M24.7136 5.36342C24.7133 5.36313 24.713 5.36279 24.7127 5.3625L19.61 0.284372C19.2277 -0.0960481 18.6094 -0.0946324 18.2289 0.287692C17.8484 0.669967 17.8499 1.28828 18.2321 1.66875L21.6581 5.07812H0.976562C0.437207 5.07812 0 5.51533 0 6.05468C0 6.59404 0.437207 7.03125 0.976562 7.03125H21.6581L18.2322 10.4406C17.8499 10.8211 17.8484 11.4394 18.2289 11.8217C18.6094 12.204 19.2278 12.2054 19.61 11.825L24.7127 6.74687C24.713 6.74658 24.7133 6.74624 24.7136 6.74594C25.0961 6.36421 25.0949 5.74389 24.7136 5.36342Z" fill="#62C4DD"/>
</svg>
