<?xml version="1.0" encoding="utf-8"?>
<svg width="54" height="54" viewBox="0 0 54 54" fill="none" xmlns="http://www.w3.org/2000/svg">
<path d="M26.8887 53.7773C41.7389 53.7773 53.7773 41.7389 53.7773 26.8887C53.7773 12.0385 41.7389 0 26.8887 0C12.0385 0 0 12.0385 0 26.8887C0 41.7389 12.0385 53.7773 26.8887 53.7773Z" fill="#62C4DD"/>
<path d="M42.1534 17.5043L43.9053 15.7523C44.1948 15.4629 44.2862 15.0363 44.1491 14.6402C44.012 14.2594 43.6616 13.9852 43.2502 13.9547L40.0206 13.6805L39.7463 10.4508C39.7159 10.0395 39.4416 9.68906 39.0608 9.55196C38.6799 9.41485 38.2381 9.50625 37.9487 9.7957L36.1967 11.5477C33.3784 9.81094 30.1487 8.91211 26.8124 8.91211C22.0135 8.91211 17.4889 10.7859 14.0916 14.1832C10.6944 17.5805 8.82056 22.1051 8.82056 26.9039C8.82056 31.7027 10.6944 36.2274 14.0916 39.6246C17.4889 43.0219 22.0135 44.8957 26.8124 44.8957C31.6112 44.8957 36.1358 43.0219 39.5331 39.6246C42.9303 36.2274 44.8041 31.7027 44.8041 26.9039C44.7889 23.5524 43.8748 20.3227 42.1534 17.5043ZM37.9791 14.7469C38.0248 15.2648 38.4362 15.6609 38.9389 15.7066L40.7975 15.859L38.2838 18.3727L35.5416 18.1441L35.3131 15.402L37.8268 12.8883L37.9791 14.7469ZM30.3924 26.8887C30.3924 28.8692 28.7776 30.4688 26.8124 30.4688C24.8471 30.4688 23.2323 28.8539 23.2323 26.8887C23.2323 24.9082 24.8471 23.3086 26.8124 23.3086C27.4217 23.3086 27.9854 23.4609 28.4881 23.7199L26.0659 26.1422C25.6545 26.5535 25.6545 27.2238 26.0659 27.6352C26.2639 27.8484 26.5381 27.9399 26.8124 27.9399C27.0866 27.9399 27.3456 27.8332 27.5588 27.6352L29.9811 25.2129C30.2401 25.7156 30.3924 26.2793 30.3924 26.8887ZM30.0116 22.1813C29.0975 21.5566 27.9854 21.191 26.7971 21.191C23.6588 21.191 21.0995 23.7504 21.0995 26.8887C21.0995 30.027 23.6588 32.5863 26.7971 32.5863C29.9354 32.5863 32.4948 30.027 32.4948 26.8887C32.4948 25.7004 32.1291 24.5883 31.5045 23.6742L34.5209 20.6578C35.892 22.3641 36.7147 24.5274 36.7147 26.8734C36.7147 32.3426 32.2663 36.7758 26.8124 36.7758C21.3584 36.7758 16.91 32.3274 16.91 26.8734C16.91 21.4195 21.3584 16.9711 26.8124 16.9711C29.1584 16.9711 31.3217 17.7938 33.028 19.1648L30.0116 22.1813ZM38.0401 38.1164C35.0389 41.1176 31.0475 42.7629 26.8124 42.7629C22.5772 42.7629 18.5858 41.1176 15.5846 38.1164C12.5834 35.1152 10.9381 31.1238 10.9381 26.8887C10.9381 22.6535 12.5834 18.6621 15.5846 15.6609C18.5858 12.6598 22.5772 11.0145 26.8124 11.0145C29.585 11.0145 32.2815 11.7305 34.6581 13.0863L33.4698 14.2746C33.2717 14.4727 33.1651 14.7316 33.1651 14.9906C33.1651 15.0363 33.1651 15.0668 33.1651 15.1125L33.3022 16.7883C31.4284 15.5848 29.2041 14.884 26.8124 14.884C20.1854 14.884 14.7924 20.277 14.7924 26.9039C14.7924 33.5309 20.1854 38.9238 26.8124 38.9238C33.4393 38.9238 38.8323 33.5309 38.8323 26.9039C38.8323 24.5121 38.1315 22.2879 36.928 20.4141L38.6038 20.5512C38.6342 20.5512 38.6647 20.5512 38.6952 20.5512H38.7104C38.7256 20.5512 38.7409 20.5512 38.7561 20.5512C38.7713 20.5512 38.8018 20.5512 38.817 20.5512C38.8323 20.5512 38.8475 20.5512 38.8627 20.5512C38.878 20.5512 38.9084 20.5359 38.9237 20.5359C38.9389 20.5359 38.9541 20.5359 38.9694 20.5207C38.9846 20.5207 39.0151 20.5055 39.0303 20.5055C39.0456 20.5055 39.0608 20.4902 39.076 20.4902C39.0913 20.475 39.1217 20.475 39.137 20.4598C39.1522 20.4598 39.1674 20.4445 39.1827 20.4445C39.1979 20.4293 39.2284 20.4293 39.2436 20.4141C39.2588 20.4141 39.2741 20.3988 39.2741 20.3988C39.2893 20.3836 39.3198 20.3684 39.335 20.3531C39.3502 20.3531 39.3502 20.3379 39.3655 20.3379C39.3959 20.3074 39.4264 20.2922 39.4416 20.2617L40.6299 19.0734C41.9858 21.45 42.7018 24.1465 42.7018 26.9192C42.6866 31.1238 41.026 35.1152 38.0401 38.1164Z" fill="white"/>
</svg>
