<svg xmlns="http://www.w3.org/2000/svg" viewBox="0 0 841.74 187.52"><defs><style>.cls-1{fill:#96a1ae;}.cls-2{fill:#62c4dd;}</style></defs><g id="Calque_2" data-name="Calque 2"><g id="Calque_1-2" data-name="Calque 1"><path class="cls-1" d="M0,166.54l14.25-31.6c15.28,11.14,38.07,18.91,59.82,18.91,24.87,0,35-8.29,35-19.43,0-33.93-105.41-10.62-105.41-78C3.63,25.64,28.49,0,80,0c22.79,0,46.1,5.44,62.94,16.06L130,47.92c-16.84-9.59-34.19-14.25-50.25-14.25-24.86,0-34.44,9.32-34.44,20.72,0,33.41,105.41,10.36,105.41,76.92,0,30.31-25.12,56.21-76.92,56.21C45.07,187.52,16.06,179,0,166.54Z"/><path class="cls-1" d="M214.45,37.3h-58V3.11h158V37.3h-58V184.41h-42Z"/><polygon class="cls-2" points="336.96 150.74 336.96 184.41 477.34 184.41 477.34 150.74 378.66 150.74 336.96 150.74"/><polygon class="cls-2" points="336.96 76.15 336.96 108.78 378.66 108.78 462.83 108.78 462.83 76.15 378.66 76.15 336.96 76.15"/><polygon class="cls-2" points="336.96 3.11 336.96 36.78 378.66 36.78 473.97 36.78 473.97 3.11 336.96 3.11"/><path class="cls-1" d="M651.12,150.74v33.67H510.74V3.11h137V36.78H552.44V76.15h84.18v32.63H552.44v42Z"/><path class="cls-1" d="M841.74,68.89c0,40.41-30.3,65.53-78.73,65.53H726.49v50h-42V3.11H763C811.44,3.11,841.74,28.23,841.74,68.89Zm-42.47,0c0-19.94-12.95-31.59-38.6-31.59H726.49v62.93h34.18C786.32,100.23,799.27,88.58,799.27,68.89Z"/></g></g></svg>