<?xml version="1.0" encoding="utf-8"?>
<svg width="55" height="51" viewBox="0 0 55 51" fill="none" xmlns="http://www.w3.org/2000/svg">
<path d="M27.2075 50.9375C42.0635 50.9375 54.1067 39.647 54.1067 25.7195C54.1067 11.792 42.0635 0.501526 27.2075 0.501526C12.3515 0.501526 0.30835 11.792 0.30835 25.7195C0.30835 39.647 12.3515 50.9375 27.2075 50.9375Z" fill="#62C4DD"/>
<path d="M41.4572 22.2762H14.3599C14.0246 22.2762 13.7502 22.5334 13.7502 22.8478V36.7069C13.7502 38.2929 15.1371 39.5931 16.8288 39.5931H38.9882C40.6799 39.5931 42.0668 38.2929 42.0668 36.7069V22.8478C42.0668 22.5334 41.7924 22.2762 41.4572 22.2762ZM40.8323 36.7069C40.8323 37.6642 40.0093 38.4358 38.9882 38.4358H16.8288C15.8077 38.4358 14.9847 37.6642 14.9847 36.7069V23.4336H40.8475V36.7069H40.8323Z" fill="white"/>
<path d="M42.0516 16.9326L41 13.2034C40.7561 12.3033 39.7655 11.7318 38.7901 11.9318L13.9789 17.4469C13.4912 17.5469 13.0797 17.8327 12.8206 18.2328C12.5615 18.6328 12.4853 19.1043 12.6073 19.5615L13.7655 23.8621C13.8417 24.1193 14.0856 24.2908 14.3599 24.2908C14.4056 24.2908 14.4666 24.2908 14.5123 24.2765C14.8476 24.2051 15.0457 23.8907 14.9543 23.5764L14.8933 23.3192L41.5944 17.6327C41.762 17.5898 41.8992 17.5041 41.9906 17.3612C42.0668 17.2469 42.0973 17.0897 42.0516 16.9326ZM14.5885 22.219L13.796 19.29C13.7503 19.1329 13.7808 18.9757 13.8722 18.8471C13.9637 18.7185 14.1008 18.6185 14.2685 18.5899L39.0797 13.0748C39.1254 13.0606 39.1711 13.0606 39.2169 13.0606C39.4912 13.0606 39.7503 13.232 39.8112 13.5035L40.6952 16.6611L14.5885 22.219Z" fill="white"/>
<path d="M19.5567 22.3334C19.2519 22.1905 18.8862 22.3048 18.7338 22.5905L16.2648 27.2055C16.1124 27.4913 16.2343 27.8342 16.5392 27.9771C16.6306 28.0199 16.722 28.0342 16.8135 28.0342C17.0421 28.0342 17.2555 27.9199 17.3621 27.7199L19.8311 23.1049C19.9835 22.8334 19.8615 22.4762 19.5567 22.3334Z" fill="white"/>
<path d="M25.714 22.3334C25.4092 22.1905 25.0434 22.3048 24.891 22.5905L22.4221 27.2055C22.2697 27.4913 22.3916 27.8342 22.6964 27.9771C22.7878 28.0199 22.8793 28.0342 22.9707 28.0342C23.1993 28.0342 23.4127 27.9199 23.5194 27.7199L25.9883 23.1049C26.1407 22.8334 26.0188 22.4762 25.714 22.3334Z" fill="white"/>
<path d="M31.8709 22.3334C31.5661 22.1905 31.2004 22.3048 31.048 22.5905L28.579 27.2055C28.4266 27.4913 28.5486 27.8342 28.8534 27.9771C28.9448 28.0199 29.0362 28.0342 29.1277 28.0342C29.3563 28.0342 29.5697 27.9199 29.6763 27.7199L32.1453 23.1049C32.2977 22.8334 32.1758 22.4762 31.8709 22.3334Z" fill="white"/>
<path d="M38.0282 22.3334C37.7234 22.1905 37.3576 22.3048 37.2052 22.5905L34.7363 27.2055C34.5839 27.4913 34.7058 27.8342 35.0106 27.9771C35.102 28.0199 35.1935 28.0342 35.2849 28.0342C35.5135 28.0342 35.7269 27.9199 35.8336 27.7199L38.3025 23.1049C38.4549 22.8334 38.333 22.4762 38.0282 22.3334Z" fill="white"/>
<path d="M41.4572 26.8911H14.3599C14.0246 26.8911 13.7502 27.1483 13.7502 27.4626C13.7502 27.777 14.0246 28.0341 14.3599 28.0341H41.4572C41.7924 28.0341 42.0668 27.777 42.0668 27.4626C42.0668 27.1483 41.7924 26.8911 41.4572 26.8911Z" fill="white"/>
<path d="M20.3188 21.2761L16.0667 17.2898C15.8229 17.0612 15.4419 17.0612 15.198 17.2898C14.9542 17.5184 14.9542 17.8756 15.198 18.1042L19.4348 22.0762C19.5568 22.1905 19.7092 22.2477 19.8768 22.2477C20.0292 22.2477 20.1969 22.1905 20.3188 22.0762C20.5474 21.8619 20.5474 21.4904 20.3188 21.2761Z" fill="white"/>
<path d="M26.3388 19.9901L22.0867 16.0039C21.8429 15.7752 21.4619 15.7752 21.218 16.0039C20.9742 16.2325 20.9742 16.5897 21.218 16.8183L25.4549 20.7903C25.5768 20.9046 25.7292 20.9617 25.8968 20.9617C26.0645 20.9617 26.2169 20.9046 26.3388 20.7903C26.5826 20.5759 26.5826 20.2188 26.3388 19.9901Z" fill="white"/>
<path d="M32.3587 18.7043L28.1219 14.7322C27.8781 14.5036 27.497 14.5036 27.2532 14.7322C27.0094 14.9608 27.0094 15.318 27.2532 15.5466L31.49 19.5187C31.6119 19.633 31.7643 19.6901 31.932 19.6901C32.0996 19.6901 32.252 19.633 32.3739 19.5187C32.6025 19.2901 32.6025 18.9329 32.3587 18.7043Z" fill="white"/>
<path d="M38.3787 17.4183L34.1419 13.4463C33.8981 13.2177 33.5171 13.2177 33.2732 13.4463C33.0294 13.6749 33.0294 14.0321 33.2732 14.2607L37.51 18.2327C37.632 18.347 37.7844 18.4042 37.952 18.4042C38.1197 18.4042 38.2721 18.347 38.394 18.2327C38.6073 18.0184 38.6073 17.6469 38.3787 17.4183Z" fill="white"/>
</svg>
