<?xml version="1.0" encoding="utf-8"?>
<svg width="57" height="58" viewBox="0 0 57 58" fill="none" xmlns="http://www.w3.org/2000/svg">
<path d="M28.2676 57.2266C43.8793 57.2266 56.5352 44.5707 56.5352 28.959C56.5352 13.3472 43.8793 0.691406 28.2676 0.691406C12.6558 0.691406 0 13.3472 0 28.959C0 44.5707 12.6558 57.2266 28.2676 57.2266Z" fill="#62C4DD"/>
<path d="M47.102 24.3306L46.109 22.6169C45.9008 22.2645 45.4524 22.1364 45.1 22.3446C44.7477 22.5528 44.6195 23.0013 44.8277 23.3536L45.8207 25.0673C45.8688 25.1634 45.8688 25.2435 45.8527 25.2915C45.8367 25.3395 45.8047 25.4196 45.7246 25.4677L43.1141 26.9731C42.9699 27.0532 42.7938 27.0052 42.7137 26.861L37.4606 17.7642C37.3805 17.62 37.4285 17.4438 37.5727 17.3638L40.1832 15.8583C40.3274 15.7782 40.5035 15.8263 40.5836 15.9704L41.5125 17.588C41.7207 17.9403 42.1691 18.0684 42.5215 17.8602C42.8738 17.652 43.002 17.2036 42.7938 16.8513L41.8648 15.2337C41.3844 14.3849 40.2953 14.0966 39.4465 14.5931L36.8359 16.0985C36.4356 16.3227 36.1633 16.6911 36.0352 17.0915H28.6359C27.5949 17.0915 26.618 17.4919 25.8813 18.2286L25.1285 18.9813C24.4559 18.8212 23.7832 18.7411 23.0945 18.7411H20.8043C20.6922 18.2927 20.4039 17.8923 19.9715 17.652L17.3609 16.1466C16.9445 15.9063 16.4801 15.8423 16.0156 15.9704C15.5512 16.0985 15.1828 16.3868 14.9426 16.7872L9.68945 25.8841C9.44921 26.3005 9.38515 26.7649 9.51328 27.2294C9.6414 27.6938 9.92968 28.0622 10.3301 28.3024L12.9406 29.8079C13.2129 29.9681 13.5172 30.0481 13.8215 30.0481C13.9336 30.0481 14.0457 30.0321 14.1418 30.0161L16.2719 32.1462C16.2398 32.3063 16.2238 32.4825 16.2238 32.6587C16.2238 33.3634 16.4961 34.036 17.0086 34.5485C17.4891 35.029 18.1137 35.2853 18.7383 35.3173C18.7223 35.4134 18.7223 35.5095 18.7223 35.6056C18.7223 36.3103 18.9945 36.9829 19.507 37.4954C20.0035 37.9919 20.6762 38.2802 21.3969 38.2802C21.4129 38.2802 21.4289 38.2802 21.4609 38.2802C21.4609 38.2962 21.4609 38.3122 21.4609 38.3442C21.4609 39.0489 21.7332 39.7216 22.2457 40.2341C22.7422 40.7306 23.4148 41.0188 24.1355 41.0188C24.1516 41.0188 24.1676 41.0188 24.1996 41.0188C24.1996 41.0349 24.1996 41.0509 24.1996 41.0829C24.1996 41.7876 24.4719 42.4603 24.9844 42.9728C25.4809 43.4692 26.1535 43.7575 26.8742 43.7575C27.5789 43.7575 28.2516 43.4853 28.7641 42.9728L29.8211 41.9157C30.1254 41.6114 30.3496 41.2431 30.4777 40.8427C30.9422 41.195 31.5027 41.3552 32.0633 41.3552C32.752 41.3552 33.4246 41.0989 33.9531 40.5704C34.2574 40.2661 34.4816 39.8817 34.6098 39.4813C35.0422 39.7536 35.5387 39.9138 36.0672 39.9138C36.7719 39.9138 37.4445 39.6415 37.957 39.129C38.3254 38.7606 38.5816 38.2962 38.6777 37.7837C38.95 37.8798 39.2223 37.9118 39.5106 37.9118C40.2152 37.9118 40.8879 37.6395 41.4004 37.1271C42.4414 36.086 42.4414 34.4044 41.4004 33.3634L39.6707 31.6337L42.8258 28.4786C42.8899 28.4946 42.9699 28.4946 43.034 28.4946C43.3383 28.4946 43.6426 28.4145 43.9149 28.2544L46.5254 26.7489C46.9418 26.5087 47.2301 26.1243 47.3422 25.6759C47.3902 25.2114 47.3262 24.747 47.102 24.3306ZM11.0508 27.0372C10.9547 26.9892 10.9227 26.9091 10.9227 26.861C10.9066 26.813 10.9066 26.7329 10.9547 26.6368L16.2078 17.5399C16.2559 17.4438 16.3359 17.4118 16.384 17.4118C16.4 17.4118 16.432 17.3958 16.4641 17.3958C16.5121 17.3958 16.5602 17.4118 16.6082 17.4278L19.2188 18.9333C19.3629 19.0134 19.4109 19.1895 19.3309 19.3337L14.0777 28.4306C13.9977 28.5747 13.8215 28.6227 13.6773 28.5427L11.0508 27.0372ZM17.6973 32.6747C17.6973 32.3544 17.8254 32.0661 18.0496 31.8419L18.6902 31.2013C18.9145 30.977 19.2187 30.8489 19.523 30.8489C19.8273 30.8489 20.1316 30.961 20.3559 31.2013C20.5801 31.4255 20.7082 31.7138 20.7082 32.0341C20.7082 32.3544 20.5801 32.6427 20.3559 32.8669L19.7152 33.5075C19.2508 33.972 18.498 33.972 18.0496 33.5075C17.8254 33.2833 17.6973 32.995 17.6973 32.6747ZM21.3809 36.7907C21.0605 36.7907 20.7723 36.6626 20.548 36.4384C20.3238 36.2142 20.1957 35.9259 20.1957 35.6056C20.1957 35.2853 20.3238 34.997 20.548 34.7727L21.6051 33.7157C21.8293 33.4915 22.1336 33.3634 22.4379 33.3634C22.7422 33.3634 23.0465 33.4755 23.2707 33.7157C23.4949 33.9399 23.623 34.2282 23.623 34.5485C23.623 34.8688 23.4949 35.1571 23.2707 35.3813L22.2137 36.4384C21.9895 36.6786 21.7012 36.7907 21.3809 36.7907ZM24.1035 39.5134C23.7832 39.5134 23.4949 39.3853 23.2707 39.161C23.0465 38.9368 22.9184 38.6485 22.9184 38.3282C22.9184 38.0079 23.0465 37.7196 23.2707 37.4954L24.3277 36.4384C24.552 36.2142 24.8563 36.086 25.1605 36.086C25.4648 36.086 25.7691 36.1981 25.9934 36.4384C26.2176 36.6626 26.3457 36.9509 26.3457 37.2712C26.3457 37.5915 26.2176 37.8798 25.9934 38.104L24.9363 39.161C24.7121 39.4013 24.4238 39.5134 24.1035 39.5134ZM28.716 40.8427L27.659 41.8997C27.4348 42.1239 27.1465 42.2521 26.8262 42.2521C26.5059 42.2521 26.2176 42.1239 25.9934 41.8997C25.7691 41.6755 25.641 41.3872 25.641 41.0669C25.641 40.7466 25.7691 40.4583 25.9934 40.2341L27.0504 39.177C27.2746 38.9528 27.5789 38.8247 27.8832 38.8247C28.1875 38.8247 28.4918 38.9368 28.716 39.177C29.1645 39.6255 29.1645 40.3782 28.716 40.8427ZM40.2633 36.086C40.0391 36.3103 39.7508 36.4384 39.4305 36.4384C39.1102 36.4384 38.8219 36.3103 38.5977 36.086L31.5348 29.0231C31.2465 28.7349 30.782 28.7349 30.4938 29.0231C30.2055 29.3114 30.2055 29.7759 30.4938 30.0642L36.8359 36.4063C37.0602 36.6306 37.1883 36.9188 37.1883 37.2392C37.1883 37.5595 37.0602 37.8478 36.8359 38.072C36.6117 38.2962 36.3234 38.4243 36.0031 38.4243C35.6828 38.4243 35.3945 38.2962 35.1703 38.072L27.5629 30.4645C27.2746 30.1763 26.8102 30.1763 26.5219 30.4645C26.2336 30.7528 26.2336 31.2173 26.5219 31.5056L32.8641 37.8478C33.0883 38.072 33.2164 38.3603 33.2164 38.6806C33.2164 39.0009 33.0883 39.2892 32.8641 39.5134C32.3996 39.9778 31.6469 39.9778 31.1984 39.5134L29.8051 38.12C29.2766 37.5915 28.5719 37.3353 27.8672 37.3513C27.8672 37.3353 27.8672 37.3192 27.8672 37.2872C27.8672 36.5825 27.5949 35.9099 27.0824 35.3974C26.5539 34.8688 25.8492 34.6126 25.1445 34.6126C25.1445 34.5966 25.1445 34.5806 25.1445 34.5485C25.1445 33.8438 24.8723 33.1712 24.3598 32.6587C23.7832 32.0821 22.9824 31.8259 22.2297 31.8899C22.1977 31.2333 21.9254 30.6087 21.4449 30.1282C20.4039 29.0872 18.7223 29.0872 17.6812 30.1282L17.0406 30.7688L15.391 29.1192L20.5 20.2306H23.0625C23.3188 20.2306 23.559 20.2466 23.8152 20.2626L22.9664 21.1114C22.4699 21.6079 22.1816 22.2806 22.1816 23.0013C22.1816 23.706 22.4539 24.3786 22.9664 24.8911C23.4789 25.4036 24.1676 25.6759 24.8563 25.6759C25.5449 25.6759 26.2176 25.4196 26.7461 24.8911L28.7481 22.8892L40.2793 34.4204C40.7277 34.8688 40.7277 35.6216 40.2633 36.086ZM33.1523 25.1954C34.2254 24.4106 34.882 23.1614 34.882 21.7841C34.882 21.3677 34.5457 21.0474 34.1453 21.0474C33.7449 21.0474 33.4086 21.3837 33.4086 21.7841C33.4086 22.745 32.8961 23.6259 32.0793 24.1224L29.2605 21.3036C28.9723 21.0153 28.5078 20.9993 28.2195 21.3036L25.6891 23.8341C25.2246 24.2985 24.4719 24.2985 24.0234 23.8341C23.7992 23.6099 23.6711 23.3216 23.6711 23.0013C23.6711 22.681 23.7992 22.3927 24.0234 22.1685L26.9063 19.2856C27.3547 18.8372 27.9633 18.5809 28.6039 18.5809H36.1953L41.4164 27.6138C41.4324 27.6298 41.4484 27.6618 41.4484 27.6778L38.5336 30.5927L33.1523 25.1954Z" fill="white"/>
<path d="M43.8027 20.8391C43.9949 20.8391 44.187 20.759 44.3312 20.6148C44.4753 20.4707 44.5554 20.2785 44.5554 20.0863C44.5554 19.8941 44.4753 19.702 44.3312 19.5578C44.187 19.4137 43.9949 19.3496 43.8027 19.3496C43.6105 19.3496 43.4183 19.4297 43.2742 19.5578C43.13 19.702 43.0499 19.8941 43.0499 20.0863C43.0499 20.2785 43.13 20.4707 43.2742 20.6148C43.4183 20.775 43.6105 20.8391 43.8027 20.8391Z" fill="white"/>
</svg>
