<?xml version="1.0" encoding="utf-8"?>
<svg width="208" height="61" viewBox="0 0 208 61" fill="none" xmlns="http://www.w3.org/2000/svg">
<g clip-path="url(#clip0)">
<path d="M41.6203 7.89621C44.6869 6.02162 47.5093 3.77071 50.0222 1.19543C52.0768 -0.898108 43.0365 0.038085 40.8572 1.93259C38.3637 4.01587 36.0399 6.29604 33.9082 8.75132C32.624 10.233 38.8025 9.58431 41.6203 7.89621ZM206.972 55.0229C208.579 55.9959 208.513 50.9464 205.277 48.9192C193.691 41.6729 161.984 54.3078 149.986 55.7453C147.734 56.018 146.912 55.443 147.447 53.9098C148.467 50.9611 152.481 45.5061 153.318 43.6337C154.154 41.7614 153.978 35.6872 144.916 35.6872C137.512 35.6872 130.724 39.1444 125.947 43.4937C121.398 47.3859 112.585 55.0966 107.162 55.0966C101.542 55.0966 117.993 38.0534 118.903 37.191C121.347 34.8836 113.634 35.4586 110.398 37.9281C109.107 38.9159 103.934 44.4741 100.698 49.8554C91.3492 56.3498 82.0374 57.8536 86.4622 52.4576C88.8176 49.5753 92.8095 45.7199 95.5465 42.6681C99.3769 38.4073 98.6798 35.5987 90.2339 35.5987C78.9262 35.5987 77.7227 36.5865 71.3461 44.0982C70.1647 45.4914 70.7738 48.9929 71.9992 47.784C79.6526 40.1765 79.4765 40.7957 89.6101 40.7957C87.9811 42.5354 85.0753 44.2677 80.1516 50.5483C75.7489 56.1507 78.6327 60.6769 84.8699 60.6769C88.3113 60.6769 93.4625 59.0551 98.1661 55.7232C97.6011 58.6718 98.7678 60.7359 103.207 60.7359C108.344 60.7359 114.214 57.6619 119.086 54.2415C118.477 57.9273 120.378 60.7359 125.815 60.7359C130.005 60.7359 134.885 59.0772 139.919 54.6985C139.919 58.0452 142.245 60.7064 146.626 60.7064C157.273 60.7064 194.146 47.2532 206.972 55.0229ZM128.655 55.9075C121.655 55.9075 135.677 39.8374 144.798 39.8374C150.273 39.8079 135.406 55.9075 128.655 55.9075ZM123.108 31.0504C126.977 28.5494 130.599 25.6809 133.924 22.4846C135.978 20.3837 126.938 21.3199 124.759 23.1849C121.77 25.734 118.951 28.4772 116.32 31.3969C115.036 32.9081 120.283 32.7533 123.108 31.0504ZM67.8386 48.1673C65.1016 50.8653 59.0992 55.362 53.8526 55.362C49.9708 55.362 57.6976 48.3737 61.528 42.7491C65.197 37.3679 62.1958 35.7609 59.1799 35.7609C51.7099 35.7609 44.4087 41.0242 39.463 44.7321C40.9599 42.7565 43.2933 40.1396 45.7662 36.8592C47.1384 35.0311 38.9053 35.6872 36.7993 38.4736C36.1242 39.3582 35.3831 40.346 34.5979 41.4223C27.4508 50.0323 16.6494 55.8559 11.3515 55.8559C8.41632 55.8559 7.32297 53.8065 9.1501 49.9586C13.5528 40.6409 28.845 22.949 37.1442 15.2015C40.9159 11.6557 29.5935 13.1006 26.9959 15.7175C15.5121 27.3351 3.9402 40.3092 0.674834 50.4009C-1.13029 56.0254 0.535415 61.0012 7.44037 61.0012C13.1052 61.0012 19.3865 58.1779 24.7211 54.8312C23.4076 56.6299 22.2116 58.2369 21.2796 59.5711C19.7754 61.6204 27.4068 60.8759 29.0138 58.834C35.0529 51.0791 49.5599 41.5402 53.5811 41.5402C57.25 41.5402 44.6068 51.0643 44.7242 56.8953C44.871 64.5543 62.526 59.8439 68.5137 51.9784C69.4163 50.7326 68.6898 47.3417 67.8386 48.1673Z" fill="#96A1AE"/>
</g>
<defs>
<clipPath id="clip0">
<rect width="208" height="61" fill="white"/>
</clipPath>
</defs>
</svg>
