<svg width="176" height="39" viewBox="0 0 176 39" fill="none" xmlns="http://www.w3.org/2000/svg">
<path d="M0 34.6366L2.97954 28.0645C6.17445 30.3814 10.9396 31.9974 15.4873 31.9974C20.6874 31.9974 22.8055 30.2733 22.8055 27.9564C22.8055 20.8997 0.765272 25.7477 0.765272 11.7341C0.758999 5.33255 5.95699 0 16.7273 0C21.4924 0 26.3663 1.1314 29.8874 3.34012L27.1818 9.9663C23.6607 7.97179 20.033 7.00261 16.675 7.00261C11.477 7.00261 9.4739 8.94097 9.4739 11.3119C9.4739 18.2605 31.5142 13.4666 31.5142 27.3096C31.5142 33.6134 26.2618 39 15.4309 39C9.42372 39 3.358 37.228 0 34.6366Z" fill="white"/>
<path d="M44.8395 7.75749H32.7122V0.646729H65.7485V7.75749H53.6213V38.3531H44.8395V7.75749Z" fill="white"/>
<path d="M70.4552 31.3506V38.3532H99.8074V31.3506H79.1743H70.4552Z" fill="#62C4DD"/>
<path d="M70.4552 15.8376V22.624H79.1743H96.7734V15.8376H79.1743H70.4552Z" fill="#62C4DD"/>
<path d="M70.4552 0.646729V7.64934H79.1743H99.1027V0.646729H70.4552Z" fill="#62C4DD"/>
<path d="M136.143 31.3505V38.3531H106.791V0.646729H135.436V7.64934H115.51V15.8374H133.111V22.6237H115.51V31.3588L136.143 31.3505Z" fill="white"/>
<path d="M176 14.3275C176 22.7319 169.665 27.9563 159.538 27.9563H151.902V38.3552H143.12V0.646729H159.536C169.665 0.646729 176 5.87113 176 14.3275ZM167.12 14.3275C167.12 10.1804 164.412 7.75749 159.049 7.75749H151.902V20.8455H159.049C164.412 20.8455 167.12 18.4226 167.12 14.3275Z" fill="white"/>
</svg>
