<svg width="133" height="44" viewBox="0 0 133 44" fill="none" xmlns="http://www.w3.org/2000/svg">
<path d="M29.941 8.34268C27.3471 3.32138 21.9385 0 15.8401 0C7.1201 0 0.0282325 6.66891 0.0282325 14.8808C0.0282325 17.1038 0.524939 19.2483 1.51835 21.2359L0.0282325 28.2448C-0.164931 29.134 0.662913 29.9186 1.60114 29.7355L9.07934 28.3233C10.0728 28.7678 11.1214 29.1078 12.1976 29.3694C9.85199 18.6206 18.4616 8.49959 29.941 8.34268Z" fill="white"/>
<path d="M44.5111 32.1417C44.7594 31.6186 44.9802 31.0956 45.1734 30.5725H45.1182C48.4847 21.2099 41.4205 11.3765 30.962 10.9058C21.9937 10.5135 14.5155 17.3393 14.5155 25.7866C14.5155 33.9985 21.5522 40.6674 30.217 40.6674C32.5625 40.6674 34.8253 40.1967 36.9225 39.2552C45.1182 40.7982 44.4835 40.6936 44.6491 40.6936C45.5045 40.6936 46.1392 39.9613 45.9736 39.1767L44.5111 32.1417Z" fill="#62C4DD"/>
<path d="M57.5654 24.2627C59.0294 24.2627 60.2414 23.7347 61.0334 22.7627L59.7854 21.6107C59.2214 22.2707 58.5134 22.6067 57.6734 22.6067C56.1014 22.6067 54.9854 21.5027 54.9854 19.9187C54.9854 18.3347 56.1014 17.2307 57.6734 17.2307C58.5134 17.2307 59.2214 17.5667 59.7854 18.2147L61.0334 17.0627C60.2414 16.1027 59.0294 15.5747 57.5774 15.5747C54.9614 15.5747 53.0174 17.3867 53.0174 19.9187C53.0174 22.4507 54.9614 24.2627 57.5654 24.2627ZM65.0636 24.2147C67.1156 24.2147 68.6036 22.8347 68.6036 20.8907C68.6036 18.9467 67.1156 17.5667 65.0636 17.5667C63.0116 17.5667 61.5116 18.9467 61.5116 20.8907C61.5116 22.8347 63.0116 24.2147 65.0636 24.2147ZM65.0636 22.6787C64.1276 22.6787 63.4076 22.0067 63.4076 20.8907C63.4076 19.7747 64.1276 19.1027 65.0636 19.1027C65.9996 19.1027 66.7076 19.7747 66.7076 20.8907C66.7076 22.0067 65.9996 22.6787 65.0636 22.6787ZM78.1228 17.5667C77.1508 17.5667 76.3108 17.9627 75.7948 18.6227C75.3388 17.9147 74.5708 17.5667 73.6708 17.5667C72.8428 17.5667 72.1228 17.8547 71.6428 18.4067V17.6627H69.8548V24.1187H71.7268V20.8787C71.7268 19.7267 72.3148 19.1867 73.1428 19.1867C73.9228 19.1867 74.3668 19.6667 74.3668 20.7107V24.1187H76.2388V20.8787C76.2388 19.7267 76.8268 19.1867 77.6668 19.1867C78.4228 19.1867 78.8908 19.6667 78.8908 20.7107V24.1187H80.7628V20.4227C80.7628 18.4547 79.6588 17.5667 78.1228 17.5667ZM86.2568 17.5667C85.3928 17.5667 84.6968 17.8427 84.2288 18.4067V17.6627H82.4408V26.4467H84.3128V23.4347C84.7928 23.9627 85.4528 24.2147 86.2568 24.2147C88.0688 24.2147 89.4728 22.9187 89.4728 20.8907C89.4728 18.8627 88.0688 17.5667 86.2568 17.5667ZM85.9328 22.6787C84.9968 22.6787 84.2888 22.0067 84.2888 20.8907C84.2888 19.7747 84.9968 19.1027 85.9328 19.1027C86.8688 19.1027 87.5768 19.7747 87.5768 20.8907C87.5768 22.0067 86.8688 22.6787 85.9328 22.6787ZM92.5139 18.5147V17.6627H90.7259V24.1187H92.5979V21.0707C92.5979 19.8347 93.2819 19.2707 94.3139 19.2707C94.4579 19.2707 94.5779 19.2827 94.7339 19.2947V17.5667C93.7379 17.5667 92.9699 17.8907 92.5139 18.5147ZM102.112 20.9147C102.112 18.8387 100.648 17.5667 98.7524 17.5667C96.7844 17.5667 95.3084 18.9587 95.3084 20.8907C95.3084 22.8107 96.7604 24.2147 98.9924 24.2147C100.156 24.2147 101.056 23.8547 101.656 23.1707L100.66 22.0907C100.216 22.5107 99.7244 22.7147 99.0404 22.7147C98.0564 22.7147 97.3724 22.2227 97.1924 21.4187H102.076C102.088 21.2627 102.112 21.0587 102.112 20.9147ZM98.7644 18.9827C99.6044 18.9827 100.216 19.5107 100.348 20.3267H97.1684C97.3004 19.4987 97.9124 18.9827 98.7644 18.9827ZM107.283 17.5667C106.407 17.5667 105.651 17.8667 105.147 18.4187V17.6627H103.359V24.1187H105.231V20.9267C105.231 19.7387 105.879 19.1867 106.779 19.1867C107.607 19.1867 108.087 19.6667 108.087 20.7107V24.1187H109.959V20.4227C109.959 18.4547 108.807 17.5667 107.283 17.5667ZM116.43 15.2147V18.3467C115.962 17.8187 115.29 17.5667 114.498 17.5667C112.674 17.5667 111.27 18.8627 111.27 20.8907C111.27 22.9187 112.674 24.2147 114.498 24.2147C115.362 24.2147 116.046 23.9387 116.514 23.3747V24.1187H118.302V15.2147H116.43ZM114.822 22.6787C113.886 22.6787 113.166 22.0067 113.166 20.8907C113.166 19.7747 113.886 19.1027 114.822 19.1027C115.746 19.1027 116.466 19.7747 116.466 20.8907C116.466 22.0067 115.746 22.6787 114.822 22.6787ZM121.823 18.5147V17.6627H120.035V24.1187H121.907V21.0707C121.907 19.8347 122.591 19.2707 123.623 19.2707C123.767 19.2707 123.887 19.2827 124.043 19.2947V17.5667C123.047 17.5667 122.279 17.8907 121.823 18.5147ZM131.421 20.9147C131.421 18.8387 129.957 17.5667 128.061 17.5667C126.093 17.5667 124.617 18.9587 124.617 20.8907C124.617 22.8107 126.069 24.2147 128.301 24.2147C129.465 24.2147 130.365 23.8547 130.965 23.1707L129.969 22.0907C129.525 22.5107 129.033 22.7147 128.349 22.7147C127.365 22.7147 126.681 22.2227 126.501 21.4187H131.385C131.397 21.2627 131.421 21.0587 131.421 20.9147ZM128.073 18.9827C128.913 18.9827 129.525 19.5107 129.657 20.3267H126.477C126.609 19.4987 127.221 18.9827 128.073 18.9827Z" fill="white"/>
<path d="M59.7374 36.9147C59.7374 34.8387 58.2734 33.5667 56.3774 33.5667C54.4094 33.5667 52.9334 34.9587 52.9334 36.8907C52.9334 38.8107 54.3854 40.2147 56.6174 40.2147C57.7814 40.2147 58.6814 39.8547 59.2814 39.1707L58.2854 38.0907C57.8414 38.5107 57.3494 38.7147 56.6654 38.7147C55.6814 38.7147 54.9974 38.2227 54.8174 37.4187H59.7014C59.7134 37.2627 59.7374 37.0587 59.7374 36.9147ZM56.3894 34.9827C57.2294 34.9827 57.8414 35.5107 57.9734 36.3267H54.7934C54.9254 35.4987 55.5374 34.9827 56.3894 34.9827ZM64.6438 38.4867C64.4398 38.6427 64.1638 38.7267 63.8878 38.7267C63.3838 38.7267 63.0838 38.4267 63.0838 37.8747V35.2467H64.6918V33.8067H63.0838V32.2347H61.2118V33.8067H60.2158V35.2467H61.2118V37.8987C61.2118 39.4347 62.0998 40.2147 63.6238 40.2147C64.1998 40.2147 64.7638 40.0827 65.1478 39.8067L64.6438 38.4867ZM76.005 40.1187H78.045L74.289 31.7187H72.369L68.625 40.1187H70.617L71.361 38.3187H75.261L76.005 40.1187ZM71.985 36.8427L73.317 33.6267L74.649 36.8427H71.985ZM83.6099 33.6627V34.4907C83.1179 33.8667 82.3739 33.5667 81.4739 33.5667C79.6859 33.5667 78.2459 34.8027 78.2459 36.6867C78.2459 38.5707 79.6859 39.8067 81.4739 39.8067C82.3139 39.8067 83.0219 39.5427 83.5139 39.0027V39.2787C83.5139 40.4427 82.9379 41.0427 81.6179 41.0427C80.7899 41.0427 79.8899 40.7547 79.3379 40.3107L78.5939 41.6547C79.3499 42.2427 80.5379 42.5427 81.7619 42.5427C84.0899 42.5427 85.3859 41.4387 85.3859 39.0387V33.6627H83.6099ZM81.8459 38.2707C80.8619 38.2707 80.1419 37.6347 80.1419 36.6867C80.1419 35.7387 80.8619 35.1027 81.8459 35.1027C82.8299 35.1027 83.5379 35.7387 83.5379 36.6867C83.5379 37.6347 82.8299 38.2707 81.8459 38.2707ZM88.0643 32.7627C88.7603 32.7627 89.2283 32.3067 89.2283 31.6827C89.2283 31.1067 88.7603 30.6747 88.0643 30.6747C87.3683 30.6747 86.9003 31.1307 86.9003 31.7187C86.9003 32.3067 87.3683 32.7627 88.0643 32.7627ZM87.1283 40.1187H89.0003V33.6627H87.1283V40.1187ZM92.5257 34.5147V33.6627H90.7377V40.1187H92.6097V37.0707C92.6097 35.8347 93.2937 35.2707 94.3257 35.2707C94.4697 35.2707 94.5897 35.2827 94.7457 35.2947V33.5667C93.7497 33.5667 92.9817 33.8907 92.5257 34.5147Z" fill="#62C4DD"/>
</svg>
