<?xml version="1.0" encoding="utf-8"?>
<svg width="54" height="54" viewBox="0 0 54 54" fill="none" xmlns="http://www.w3.org/2000/svg">
<path d="M26.8887 53.7773C41.7389 53.7773 53.7773 41.7389 53.7773 26.8887C53.7773 12.0385 41.7389 0 26.8887 0C12.0385 0 0 12.0385 0 26.8887C0 41.7389 12.0385 53.7773 26.8887 53.7773Z" fill="#62C4DD"/>
<path d="M27 10C19.8314 10 14 15.8881 14 23.125C14 32.8078 25.9943 44.3164 26.5049 44.802C26.6445 44.9338 26.8223 45 27 45C27.1777 45 27.3555 44.9338 27.4952 44.802C28.0057 44.3164 40 32.8078 40 23.125C40 15.8881 34.1686 10 27 10ZM27 30.4167C23.0179 30.4167 19.7778 27.1454 19.7778 23.125C19.7778 19.1046 23.0179 15.8333 27 15.8333C30.9821 15.8333 34.2222 19.1046 34.2222 23.125C34.2222 27.1454 30.9821 30.4167 27 30.4167Z" fill="white"/>
</svg>
