<?xml version="1.0" encoding="utf-8"?>
<svg width="54" height="51" viewBox="0 0 54 51" fill="none" xmlns="http://www.w3.org/2000/svg">
<path d="M26.8887 50.842C41.7389 50.842 53.7773 39.556 53.7773 25.6339C53.7773 11.7118 41.7389 0.425781 26.8887 0.425781C12.0385 0.425781 0 11.7118 0 25.6339C0 39.556 12.0385 50.842 26.8887 50.842Z" fill="#62C4DD"/>
<path d="M38.5734 18.15H32.693V13.8511C32.693 13.4512 32.3426 13.1227 31.916 13.1227H13.6805C13.2539 13.1227 12.9035 13.4512 12.9035 13.8511V32.6322C12.9035 34.6317 14.6402 36.2599 16.773 36.2599H35.4656C37.5984 36.2599 39.3351 34.6317 39.3351 32.6322V18.8784C39.3504 18.4785 39 18.15 38.5734 18.15ZM16.7883 34.8031C15.5086 34.8031 14.4574 33.8319 14.4574 32.6179V14.5652H31.139C31.139 33.7605 31.1238 32.6893 31.1543 32.9607C31.2152 33.632 31.4894 34.2747 31.916 34.8031H16.7883ZM37.7965 32.6322C37.7965 33.8319 36.7605 34.8174 35.4656 34.8174C35.298 34.8174 35.1762 34.8174 34.9933 34.8174C33.7137 34.8174 32.6625 33.8462 32.6625 32.6322V19.6068H37.7812V32.6322H37.7965Z" fill="white"/>
<path d="M28.6101 16.6075H17.0472C16.6207 16.6075 16.2703 16.936 16.2703 17.3359C16.2703 17.7358 16.6207 18.0643 17.0472 18.0643H28.6101C29.0367 18.0643 29.3871 17.7358 29.3871 17.3359C29.3718 16.936 29.0367 16.6075 28.6101 16.6075Z" fill="white"/>
<path d="M28.6101 19.7068H17.0472C16.6207 19.7068 16.2703 20.0353 16.2703 20.4352C16.2703 20.8351 16.6207 21.1636 17.0472 21.1636H28.6101C29.0367 21.1636 29.3871 20.8351 29.3871 20.4352C29.3871 20.0353 29.0367 19.7068 28.6101 19.7068Z" fill="white"/>
<path d="M28.6101 31.3182H17.0472C16.6207 31.3182 16.2703 31.6467 16.2703 32.0466C16.2703 32.4465 16.6207 32.775 17.0472 32.775H28.6101C29.0367 32.775 29.3871 32.4465 29.3871 32.0466C29.3718 31.6467 29.0367 31.3182 28.6101 31.3182Z" fill="white"/>
<path d="M28.6101 22.806H22.8211C22.3945 22.806 22.0441 23.1345 22.0441 23.5344V28.9617C22.0441 29.3616 22.3945 29.6901 22.8211 29.6901H28.6101C29.0367 29.6901 29.3871 29.3616 29.3871 28.9617V23.5344C29.3719 23.1202 29.0367 22.806 28.6101 22.806ZM27.8332 28.219H23.598V24.2485H27.8332V28.219Z" fill="white"/>
<path d="M17.032 25.4197H19.5152C19.9418 25.4197 20.2922 25.0912 20.2922 24.6913C20.2922 24.2914 19.9418 23.9629 19.5152 23.9629H17.032C16.6055 23.9629 16.2551 24.2914 16.2551 24.6913C16.2703 25.0912 16.6055 25.4197 17.032 25.4197Z" fill="white"/>
<path d="M17.032 28.5047H19.5152C19.9418 28.5047 20.2922 28.1762 20.2922 27.7763C20.2922 27.3763 19.9418 27.0479 19.5152 27.0479H17.032C16.6055 27.0479 16.2551 27.3763 16.2551 27.7763C16.2551 28.1762 16.6055 28.5047 17.032 28.5047Z" fill="white"/>
</svg>
