<?xml version="1.0" encoding="utf-8"?>
<svg width="117" height="113" viewBox="0 0 117 113" fill="none" xmlns="http://www.w3.org/2000/svg">
<g clip-path="url(#clip0)">
<path d="M55.214 0.93842C54.2034 0.878611 53.197 0.84354 52.2029 0.84354C38.2922 0.827041 25.6931 6.74813 14.7171 18.4892C4.73522 29.1538 1.37972 37.7436 1.41272 48.1071C1.42922 53.6507 2.41299 59.7079 3.86903 66.8685C6.60787 80.3276 14.5955 93.3164 25.79 102.517C34.3551 109.554 43.9101 113.154 53.9827 113.22C59.1985 113.253 64.5524 112.342 69.9847 110.469C87.5129 104.42 104.284 87.0984 110.76 68.3493C112.81 62.4179 113.806 56.6391 113.79 51.1449C113.738 37.7127 107.598 25.9406 95.8779 17.5241C81.6516 7.30498 67.9739 1.72831 55.214 0.93842Z" fill="#96A1AE"/>
<path d="M35.2047 57.2133H31.3501L31.3439 57.3247C31.3109 58.0754 30.8676 64.6296 25.0001 64.6296C19.7575 64.6296 17.095 59.9315 17.0909 50.6653C17.095 41.4011 19.7575 36.7009 25.0001 36.7009C30.9665 36.7009 31.3274 43.7047 31.3439 44.0058L31.3501 44.1172H35.2047C35.5595 44.1172 35.9039 43.9749 36.1534 43.7192C36.3926 43.4737 36.5143 43.1582 36.4978 42.8282C36.4195 41.0113 35.4873 31.9409 24.9485 31.9409C16.4329 31.9409 11.9308 38.4147 11.9308 50.657C11.9308 62.922 16.4309 69.4123 24.9485 69.4123C35.0872 69.4123 36.3473 61.1277 36.4978 58.591C36.5205 58.2404 36.403 57.9001 36.1596 57.6464C35.9101 57.3577 35.5615 57.2133 35.2047 57.2133Z" fill="white"/>
<path d="M95.0961 48.4308L91.7819 46.9871C88.5873 45.5867 87.4591 44.2214 87.4591 41.7713C87.4591 38.5767 89.7917 36.4339 93.2668 36.4339C95.323 36.4339 97.0059 36.8546 99.0682 38.95L99.1796 39.0676L100.951 37.4465C101.98 36.4958 101.679 35.6337 101.252 35.0831C99.524 33.0454 96.7522 31.9297 93.4359 31.9297C87.0487 31.9297 82.4084 36.0957 82.4084 41.8394C82.4084 47.4841 85.966 49.8456 89.8082 51.5573L93.1967 53.067C96.6037 54.5931 98.2247 55.8945 98.2247 59.1716C98.2247 63.6387 94.1866 64.8329 91.8025 64.8329C89.7525 64.8329 87.4632 64.3936 84.6584 61.2154L84.547 61.0876L82.7012 62.7086C81.7505 63.5418 81.7463 64.2595 82.6682 65.4474C85.2049 68.7143 88.9337 69.3969 91.6107 69.3969C97.3998 69.3969 103.267 65.8414 103.267 59.0417C103.269 53.1536 100.003 50.5426 95.0961 48.4308Z" fill="white"/>
<path d="M62.36 42.6416C62.36 36.8587 57.6701 31.9585 51.8872 31.9585C49.1649 31.9585 46.688 32.9979 44.8257 34.6973V32.7092H41.3444C40.2946 32.7092 39.8945 33.3918 39.8945 34.1817V67.9346C39.8945 68.8833 40.472 69.3886 41.3279 69.3886H44.8112V42.8458C44.8112 39.3583 47.6387 36.5287 51.1283 36.5287C54.6178 36.5287 57.4454 39.3562 57.4454 42.8458V69.3948H60.906C61.8671 69.3948 62.3621 68.8606 62.3621 67.9449C62.36 67.947 62.36 42.6767 62.36 42.6416Z" fill="white"/>
<path d="M82.3404 34.4829C82.524 34.254 82.6353 33.9715 82.6353 33.66C82.6353 33.0784 82.2579 32.5938 81.734 32.4144C80.7297 32.0761 79.6511 31.8926 78.5353 31.8926C75.813 31.8926 73.3361 32.932 71.4737 34.6314V32.6433H67.9904C66.9406 32.6433 66.5405 33.3259 66.5405 34.1158V67.8625C66.5405 68.8112 67.1242 69.3165 67.9801 69.3165H71.4614V42.7757C71.4614 39.2862 74.2889 36.4587 77.7784 36.4587C78.69 36.4587 79.5562 36.6608 80.3399 37.0052L82.3507 34.4767L82.3404 34.4829Z" fill="white"/>
</g>
<defs>
<clipPath id="clip0">
<rect width="117" height="113" fill="white"/>
</clipPath>
</defs>
</svg>
