<?xml version="1.0" encoding="utf-8"?>
<svg width="174" height="111" viewBox="0 0 174 111" fill="none" xmlns="http://www.w3.org/2000/svg">
<g clip-path="url(#clip0)">
<path d="M7.49758 60.8491C6.59987 61.753 5.49159 62.1335 4.24477 62.1335C3.01458 62.1335 1.95618 61.7054 1.14159 60.9284C-0.0221045 59.8184 -0.00548034 58.571 -0.00548034 56.4038C-0.00548034 54.2367 -0.0221045 52.984 1.14159 51.8793C1.95618 51.1023 2.98133 50.6741 4.24477 50.6741C6.74949 50.6741 8.21242 52.2387 8.53936 54.1733H6.73286C6.43363 52.9364 5.56917 52.2123 4.24477 52.2123C3.54656 52.2123 2.91484 52.4818 2.50477 52.91C1.92293 53.5125 1.78993 54.1468 1.78993 56.4091C1.78993 58.6714 1.92293 59.3215 2.50477 59.9241C2.92038 60.3523 3.5521 60.606 4.24477 60.606C5.02611 60.606 5.70216 60.3205 6.16764 59.8131C6.59987 59.3374 6.76611 58.7665 6.76611 58.0424V57.4081H4.25032V55.9545H8.56153V57.6671C8.56153 59.126 8.27891 60.0563 7.49758 60.8491Z" fill="#96A1AE"/>
<path d="M20.6085 55.8965C20.2262 55.5318 19.9269 55.3574 19.3451 55.3574C18.4307 55.3574 17.6716 56.0551 17.6716 57.1598V62.0332H15.9814V54.0095H17.6383V54.8816C18.0706 54.3108 18.935 53.9144 19.8771 53.9144C20.6916 53.9144 21.3012 54.1205 21.883 54.6755L20.6085 55.8965Z" fill="#96A1AE"/>
<path d="M32.5004 56.2771C32.2344 55.6745 31.6359 55.2623 30.8435 55.2623C30.0511 55.2623 29.436 55.6745 29.17 56.2771C29.0037 56.6418 28.9705 56.8797 28.9539 57.3713H32.7387C32.7165 56.8744 32.6666 56.6418 32.5004 56.2771ZM28.9483 58.4918C28.9483 59.8714 29.713 60.7383 31.0873 60.7383C32.0349 60.7383 32.5281 60.4846 33.1265 59.9137L34.2071 60.881C33.3427 61.7056 32.5336 62.1284 31.0541 62.1284C28.9483 62.1284 27.2693 61.066 27.2693 58.0161C27.2693 55.4208 28.6823 53.9197 30.8379 53.9197C33.0933 53.9197 34.4066 55.5001 34.4066 57.7783V58.4918H28.9483Z" fill="#96A1AE"/>
<path d="M46.7528 62.0332V57.1439C46.7528 55.8912 46.0047 55.3574 45.0627 55.3574C44.1151 55.3574 43.3227 55.9124 43.3227 57.1439V62.0332H41.6326V54.0095H43.2895V54.8182C43.8713 54.2156 44.6803 53.9144 45.5282 53.9144C46.3926 53.9144 47.1019 54.1839 47.6007 54.6438C48.249 55.2464 48.4485 56.0075 48.4485 56.9061V62.0332H46.7528Z" fill="#96A1AE"/>
<path d="M60.3681 55.8171C60.0522 55.5158 59.62 55.3573 59.1268 55.3573C58.6336 55.3573 58.2125 55.5158 57.8966 55.8171C57.3813 56.3087 57.3148 57.1491 57.3148 58.016C57.3148 58.8881 57.3813 59.7233 57.8966 60.2148C58.2125 60.5161 58.6281 60.6905 59.1268 60.6905C59.6255 60.6905 60.0578 60.5161 60.3681 60.2148C60.8834 59.7233 60.9499 58.8881 60.9499 58.016C60.9499 57.1438 60.8834 56.3087 60.3681 55.8171ZM61.6481 61.1821C61.0995 61.7213 60.2739 62.1335 59.1268 62.1335C57.9797 62.1335 57.1707 61.7213 56.6221 61.1821C55.8241 60.3893 55.6246 59.3797 55.6246 58.016C55.6246 56.6734 55.8241 55.6585 56.6221 54.8657C57.1707 54.3265 57.9797 53.9143 59.1268 53.9143C60.2739 53.9143 61.0995 54.3265 61.6481 54.8657C62.4461 55.6585 62.6456 56.6681 62.6456 58.016C62.6456 59.3797 62.4461 60.3893 61.6481 61.1821Z" fill="#96A1AE"/>
<path d="M73.3627 55.3573C71.8332 55.3573 71.606 56.5888 71.606 58.016C71.606 59.4431 71.8388 60.6905 73.3627 60.6905C74.8865 60.6905 75.1027 59.4431 75.1027 58.016C75.1027 56.5941 74.8865 55.3573 73.3627 55.3573ZM75.8507 61.42C75.3853 61.864 74.6372 62.1335 73.7949 62.1335C72.8805 62.1335 72.199 61.9115 71.5728 61.1821V62.0384H69.9159V50.7693H71.6116V54.8234C72.2267 54.1257 72.9249 53.9195 73.817 53.9195C74.6649 53.9195 75.3963 54.1891 75.8563 54.6331C76.7041 55.4418 76.8039 56.8003 76.8039 58.0213C76.7983 59.237 76.6986 60.6113 75.8507 61.42Z" fill="#96A1AE"/>
<path d="M86.3184 62.0332C84.7114 62.0332 84.0132 61.0025 84.0132 59.8185V50.7641H85.7088V59.7233C85.7088 60.3418 85.9416 60.6589 86.6232 60.6589H87.3713V62.0332H86.3184Z" fill="#96A1AE"/>
<path d="M98.576 56.2771C98.31 55.6745 97.7115 55.2623 96.9191 55.2623C96.1212 55.2623 95.5116 55.6745 95.2456 56.2771C95.0794 56.6418 95.0461 56.8797 95.0295 57.3713H98.8143C98.7921 56.8744 98.7423 56.6418 98.576 56.2771ZM95.0295 58.4918C95.0295 59.8714 95.7942 60.7383 97.1685 60.7383C98.1161 60.7383 98.6093 60.4846 99.2077 59.9137L100.288 60.881C99.4238 61.7056 98.6093 62.1284 97.1352 62.1284C95.0295 62.1284 93.3505 61.066 93.3505 58.0161C93.3505 55.4208 94.758 53.9197 96.9191 53.9197C99.1745 53.9197 100.488 55.5001 100.488 57.7783V58.4918H95.0295Z" fill="#96A1AE"/>
<path d="M116.214 62.0332H119.118V50.7641H116.214V62.0332Z" fill="#96A1AE"/>
<path d="M133.171 62.0332L129.386 56.3669V62.0332H126.483V50.7641H129.021L132.805 56.4303V50.7641H135.709V62.0332H133.171Z" fill="#96A1AE"/>
<path d="M147.623 53.2536H145.983V55.5318H147.623C148.421 55.5318 148.886 54.9768 148.886 54.3953C148.881 53.8086 148.415 53.2536 147.623 53.2536ZM147.756 58.0161H145.983V62.0332H143.079V50.7641H147.756C150.377 50.7641 151.79 52.5348 151.79 54.3901C151.785 56.2453 150.371 58.0161 147.756 58.0161Z" fill="#96A1AE"/>
<path d="M101.053 25.1654L101.28 25.7996C104.217 34.1722 105.702 42.9412 105.702 51.8582C105.702 64.0471 102.97 75.7761 97.5841 86.7228L102.599 88.9692C108.334 77.3142 111.244 64.8294 111.244 51.8582C111.244 42.3704 109.659 33.0358 106.533 24.1188L106.295 23.4422L101.053 25.1654Z" fill="#96A1AE"/>
<path d="M114.629 78.2814C111.377 88.9374 106.212 98.8904 99.2687 107.86L103.73 111C111.061 101.528 116.519 91.0147 119.949 79.7561L114.629 78.2814Z" fill="#96A1AE"/>
<path d="M104.162 2.80134C112.889 16.4596 117.838 32.1476 118.481 48.1792L124.017 47.9783C123.335 31.0482 118.104 14.4775 108.889 0.0527649L104.162 2.80134Z" fill="#96A1AE"/>
<path d="M153.763 22.8818C155.996 32.3326 157.126 42.0795 157.126 51.858C157.126 61.6472 155.99 71.4099 153.752 80.8713L159.155 82.0342C161.482 72.1922 162.662 62.0383 162.662 51.858C162.662 41.6936 161.482 31.5503 159.16 21.7189L153.763 22.8818Z" fill="#96A1AE"/>
<path d="M137.981 63.9888C136.873 73.4291 134.523 82.7056 130.999 91.5591L136.18 93.4355C139.871 84.1697 142.325 74.4598 143.489 64.5808L137.981 63.9888Z" fill="#96A1AE"/>
<path d="M137.532 34.9704C138.164 39.1884 138.546 43.5015 138.679 47.783L144.22 47.6297C144.082 43.1527 143.677 38.6387 143.024 34.2251L137.532 34.9704Z" fill="#96A1AE"/>
<path d="M165.699 23.9179C167.511 32.8296 168.431 41.995 168.431 51.1552C168.431 52.2282 168.42 53.3012 168.392 54.353L173.934 54.4746C173.961 53.3858 173.972 52.2705 173.972 51.1605C173.972 41.662 173.019 32.1583 171.141 22.9136L165.699 23.9179Z" fill="#96A1AE"/>
</g>
<defs>
<clipPath id="clip0">
<rect width="174" height="111" fill="white"/>
</clipPath>
</defs>
</svg>
