<?xml version="1.0" encoding="utf-8"?>
<svg width="176" height="108" viewBox="0 0 176 108" fill="none" xmlns="http://www.w3.org/2000/svg">
<path d="M26.1653 54.7043C12.9066 54.7043 2.11194 43.9043 2.11194 30.5217V1.99561H12.7893V30.5217C12.7893 37.9173 18.7733 43.9043 26.1653 43.9043C33.5573 43.9043 39.5413 37.9173 39.5413 30.5217V1.99561H50.2186V30.5217C50.2186 43.9043 39.4239 54.7043 26.1653 54.7043Z" fill="#96A1AE"/>
<path d="M144.555 23.4782L162.155 53.8826H174.592L144.555 1.99561L114.635 53.8826H127.072L144.555 23.4782Z" fill="#96A1AE"/>
<path d="M86.2399 54.7044C81.1946 54.7044 76.1492 53.2958 71.6906 50.361C59.2532 42.261 55.7332 25.5914 63.8292 13.2653C71.9252 0.821844 88.4692 -2.69989 100.907 5.4001L95.0399 14.4392C87.6479 9.62619 77.6746 11.7392 72.8639 19.1349C68.0532 26.5305 70.1652 36.5088 77.5572 41.3218C84.9492 46.1349 94.9226 44.0218 99.7332 36.6262L108.768 42.4958C103.488 50.361 94.9226 54.7044 86.2399 54.7044Z" fill="#96A1AE"/>
<path d="M109.707 22.5393H85.8879V33.2219H109.707V22.5393Z" fill="#96A1AE"/>
<path d="M144.555 46.6045L131.883 68.6741H157.344L144.555 46.6045Z" fill="#E84E0F"/>
<path d="M3.87194 79.1217C2.69861 77.9478 2.11194 76.5391 2.11194 74.7782V65.2695H5.39727V74.6608C5.39727 75.6 5.63194 76.3043 6.21861 76.8913C6.80527 77.4782 7.50927 77.713 8.3306 77.713C9.15194 77.713 9.97327 77.4782 10.5599 76.8913C11.1466 76.3043 11.3813 75.6 11.3813 74.6608V65.2695H14.6666V74.7782C14.6666 76.5391 14.0799 78.0652 12.9066 79.1217C11.7333 80.2956 10.2079 80.8826 8.3306 80.8826C6.5706 80.7652 5.04527 80.2956 3.87194 79.1217Z" fill="#96A1AE"/>
<path d="M27.9252 69.7305C28.7465 70.6696 29.0985 71.8435 29.0985 73.3696V80.5305H25.9305V73.8392C25.9305 72.0783 25.2265 71.1392 23.9359 71.1392C23.3492 71.1392 22.8799 71.2566 22.5279 71.4913C22.1759 71.7261 21.8239 72.0783 21.5892 72.5479C21.3545 73.0174 21.2372 73.6044 21.2372 74.1913V80.4131H18.0692V68.674H20.2985L20.8852 70.0826C21.1199 69.8479 21.3545 69.6131 21.5892 69.3783C21.8239 69.1435 22.1759 69.0261 22.5279 68.7913C22.8799 68.6739 23.2319 68.5566 23.5839 68.4392C23.9359 68.3218 24.2879 68.3218 24.7572 68.3218C26.0479 68.4392 27.1039 68.9087 27.9252 69.7305Z" fill="#96A1AE"/>
<path d="M32.5012 64.0957H35.6692V67.0305H32.5012V64.0957ZM32.5012 68.674H35.6692V80.4131H32.5012V68.674Z" fill="#96A1AE"/>
<path d="M50.2186 68.6738L45.5253 80.413H42.5919L37.7812 68.6738H41.1839L44.1172 76.539L46.9333 68.6738H50.2186Z" fill="#96A1AE"/>
<path d="M63.2426 75.4827H54.3252C54.4426 76.3044 54.7946 76.8914 55.2639 77.361C55.7332 77.8305 56.4372 77.9479 57.1412 77.9479C57.7279 77.9479 58.1972 77.8305 58.5492 77.5957C59.0186 77.3609 59.3706 77.0088 59.6052 76.6566H63.0079C62.5386 77.9479 61.8346 79.0044 60.7786 79.7088C59.7226 80.4131 58.5492 80.8827 57.1412 80.8827C55.3812 80.8827 53.9732 80.2957 52.7999 79.1218C51.6266 77.9479 51.0399 76.4218 51.0399 74.6609C51.0399 73.9566 51.1572 73.2523 51.3919 72.6653C51.6266 72.0783 51.8612 71.4914 52.2132 70.9044C52.5652 70.4349 53.0346 69.9653 53.5039 69.6131C53.9732 69.2609 54.5599 68.9088 55.1466 68.7914C55.7332 68.5566 56.4372 68.4392 57.1412 68.4392C58.3146 68.4392 59.3706 68.674 60.3092 69.2609C61.2479 69.8479 61.9519 70.5523 62.4212 71.4914C62.8906 72.4305 63.1252 73.487 63.1252 74.5436C63.3599 74.8957 63.2426 75.1305 63.2426 75.4827ZM55.3812 71.6088C54.9119 71.9609 54.5599 72.5479 54.4426 73.2523H60.1919C60.0746 72.7827 59.8399 72.3131 59.6052 72.0783C59.3706 71.7262 59.0186 71.4914 58.6666 71.374C58.3146 71.2566 57.8452 71.1392 57.3759 71.1392C56.5546 71.0218 55.8506 71.2566 55.3812 71.6088Z" fill="#96A1AE"/>
<path d="M73.0986 68.674V71.6088H71.6906C70.7519 71.6088 70.1653 71.8436 69.8133 72.1958C69.4613 72.6653 69.2266 73.2523 69.2266 74.3088V80.4132H66.0586V68.674H68.0533L68.6399 70.0827C69.4613 69.0262 70.5173 68.5566 72.0426 68.5566H73.0986V68.674Z" fill="#96A1AE"/>
<path d="M76.8533 80.2957C76.1493 79.9436 75.5626 79.474 75.0933 78.7696C74.6239 78.1827 74.5066 77.3609 74.5066 76.5392H77.5573C77.5573 76.8914 77.6746 77.1262 77.7919 77.4783C77.9093 77.7131 78.1439 77.9479 78.4959 77.9479C78.7306 78.0653 79.0826 78.0653 79.5519 78.0653C79.9039 78.0653 80.1386 78.0653 80.3733 77.9479C80.6079 77.8305 80.8426 77.7131 80.9599 77.5957C81.0773 77.3609 81.1946 77.2436 81.1946 77.0088C81.1946 76.6566 80.9599 76.4218 80.6079 76.187C80.2559 76.0696 79.6693 75.8349 78.8479 75.7175C78.3786 75.6001 78.0266 75.6001 77.6746 75.4827C77.3226 75.3653 76.9706 75.2479 76.6186 75.1305C76.1493 74.8957 75.7973 74.7783 75.5626 74.5436C75.3279 74.3088 75.0933 73.9566 74.8586 73.6044C74.6239 73.2523 74.6239 72.6653 74.6239 72.1957C74.6239 71.1392 75.0933 70.2001 75.9146 69.4957C76.7359 68.7914 77.9093 68.4392 79.3173 68.4392C80.7253 68.4392 81.8986 68.7914 82.7199 69.4957C83.5413 70.2001 84.0106 71.1392 84.0106 72.3131H80.9599C80.9599 71.374 80.3733 70.9044 79.1999 70.9044C78.7306 70.9044 78.2613 71.0218 78.0266 71.2566C77.7919 71.4914 77.5573 71.7262 77.5573 72.0783C77.5573 72.1957 77.5573 72.3131 77.6746 72.4305C77.7919 72.5479 77.7919 72.6653 77.9093 72.7827C78.0266 72.9001 78.1439 72.9001 78.3786 73.0175C78.6133 73.1349 78.8479 73.1349 78.9653 73.1349L79.6693 73.2523C79.9039 73.2523 80.1386 73.3696 80.2559 73.3696C80.3733 73.3696 80.6079 73.487 80.8426 73.487C81.0773 73.487 81.3119 73.6044 81.4293 73.6044C81.5466 73.6044 81.7813 73.7218 82.0159 73.8392C82.2506 73.9566 82.4853 74.074 82.6026 74.074C82.7199 74.1914 82.8373 74.3088 83.0719 74.4262C83.3066 74.5436 83.4239 74.6609 83.5413 74.8957C83.6586 75.0131 83.7759 75.2479 83.8933 75.3653C84.0106 75.6001 84.0106 75.7175 84.1279 76.0696C84.1279 76.3044 84.1279 76.5392 84.1279 76.8914C84.1279 78.0653 83.6586 79.1218 82.7199 79.8262C81.7813 80.5305 80.6079 80.8827 79.0826 80.8827C78.4959 80.7653 77.5573 80.6479 76.8533 80.2957Z" fill="#96A1AE"/>
<path d="M87.1786 64.0957H90.3466V67.0305H87.1786V64.0957ZM87.1786 68.674H90.3466V80.4131H87.1786V68.674Z" fill="#96A1AE"/>
<path d="M101.024 77.5957V80.4131H98.7946C97.9733 80.4131 97.1519 80.2957 96.5653 79.9436C95.9786 79.5914 95.3919 79.1218 95.1573 78.5349C94.8053 77.9479 94.6879 77.1262 94.6879 76.3044V71.2566H92.5759V70.5523L97.2693 65.6218H97.8559V68.674H100.907V71.2566H97.7386V75.8349C97.7386 76.4218 97.8559 76.8914 98.2079 77.1262C98.5599 77.361 98.9119 77.5957 99.4986 77.5957H101.024Z" fill="#96A1AE"/>
<path d="M114.869 75.4827H105.952C106.069 76.3044 106.421 76.8914 106.891 77.3609C107.36 77.8305 108.064 77.9479 108.768 77.9479C109.355 77.9479 109.824 77.8305 110.176 77.5957C110.645 77.3609 110.997 77.0087 111.232 76.6566H114.635C114.165 77.9479 113.461 79.0044 112.405 79.7087C111.349 80.4131 110.176 80.8827 108.768 80.8827C107.008 80.8827 105.6 80.2957 104.427 79.1218C103.253 77.9479 102.667 76.4218 102.667 74.6609C102.667 73.9566 102.784 73.2522 103.019 72.6653C103.253 72.0783 103.488 71.4914 103.84 70.9044C104.192 70.4348 104.661 69.9653 105.131 69.6131C105.6 69.2609 106.187 68.9087 106.773 68.7914C107.36 68.5566 108.064 68.4392 108.768 68.4392C109.941 68.4392 110.997 68.674 111.936 69.2609C112.875 69.8479 113.579 70.5522 114.048 71.4914C114.517 72.4305 114.752 73.487 114.752 74.5435C114.987 74.8957 114.987 75.1305 114.869 75.4827ZM107.125 71.6087C106.656 71.9609 106.304 72.5479 106.187 73.2522H111.936C111.819 72.7827 111.584 72.3131 111.349 72.0783C111.115 71.7261 110.763 71.4914 110.411 71.374C110.059 71.2566 109.589 71.1392 109.12 71.1392C108.181 71.0218 107.595 71.2566 107.125 71.6087ZM109.824 67.3827H107.477L108.651 64.0957H112.053L109.824 67.3827Z" fill="#96A1AE"/>
<path d="M17.1306 94.6175C17.1306 97.0828 16.4266 99.0784 14.9013 100.604C13.4933 102.131 11.616 102.952 9.26929 102.952C7.03996 102.952 5.16263 102.248 3.63729 100.722C2.11196 99.1958 1.40796 97.3175 1.40796 95.0871C1.40796 92.7393 2.11196 90.861 3.63729 89.3349C5.16263 87.8088 7.03996 87.1045 9.26929 87.1045C11.1466 87.1045 12.7893 87.6915 14.3146 88.748C15.7226 89.8045 16.6613 91.2132 17.0133 92.9741H13.6106C13.376 92.3871 13.024 91.9175 12.672 91.5654C12.32 91.2132 11.7333 90.861 11.264 90.6262C10.6773 90.3914 10.0906 90.2741 9.50396 90.2741C8.09596 90.2741 7.03996 90.7436 6.21863 91.6828C5.39729 92.6219 4.92796 93.7958 4.92796 95.2045C4.92796 96.1436 5.16263 96.9654 5.51463 97.6697C5.86663 98.3741 6.45329 98.961 7.15729 99.4306C7.86129 99.7828 8.68263 100.018 9.50396 100.018C10.208 100.018 10.7946 99.9002 11.3813 99.6654C11.968 99.4306 12.4373 99.1958 12.9066 98.7262C13.376 98.3741 13.6106 97.9045 13.8453 97.3175H8.91729V94.7349H17.1306V94.6175Z" fill="#96A1AE"/>
<path d="M26.8692 90.7434V93.7956H25.4612C24.5226 93.7956 23.9359 94.0304 23.5839 94.3825C23.2319 94.8521 22.9972 95.4391 22.9972 96.4956V102.6H19.8292V90.8608H21.8239L22.4106 92.2695C23.2319 91.213 24.2879 90.7434 25.8132 90.7434H26.8692Z" fill="#96A1AE"/>
<path d="M40.2453 97.5523H31.3279C31.4453 98.374 31.7973 98.961 32.2666 99.4305C32.7359 99.9001 33.4399 100.017 34.1439 100.017C34.7306 100.017 35.1999 99.9001 35.5519 99.6653C36.0213 99.4305 36.3733 99.0784 36.6079 98.7262H40.0106C39.5413 100.017 38.8373 101.074 37.7813 101.778C36.7253 102.483 35.5519 102.952 34.1439 102.952C32.3839 102.952 30.9759 102.365 29.8026 101.191C28.6293 100.017 28.0426 98.4914 28.0426 96.7305C28.0426 96.0262 28.1599 95.3218 28.3946 94.7349C28.6293 94.1479 28.8639 93.561 29.2159 92.974C29.5679 92.5044 30.0373 92.0349 30.5066 91.6827C30.9759 91.3305 31.5626 90.9784 32.1493 90.861C32.7359 90.6262 33.4399 90.5088 34.1439 90.5088C35.3173 90.5088 36.3733 90.7436 37.3119 91.3305C38.2506 91.9175 38.9546 92.6218 39.4239 93.561C39.8933 94.5001 40.1279 95.5566 40.1279 96.6131C40.2453 96.9653 40.2453 97.2001 40.2453 97.5523ZM32.3839 93.7958C31.9146 94.1479 31.5626 94.7349 31.4453 95.4392H37.1946C37.0773 94.9697 36.8426 94.5001 36.6079 94.2653C36.3733 93.9131 36.0213 93.6784 35.6693 93.561C35.3173 93.4436 34.8479 93.3262 34.3786 93.3262C33.4399 93.2088 32.8533 93.3262 32.3839 93.7958Z" fill="#96A1AE"/>
<path d="M52.9173 91.8001C53.7386 92.7392 54.0906 93.9131 54.0906 95.4392V102.6H50.9226V95.9088C50.9226 94.1479 50.2186 93.2088 48.9279 93.2088C48.3413 93.2088 47.8719 93.3261 47.5199 93.5609C47.1679 93.7957 46.8159 94.1479 46.5813 94.6174C46.3466 95.087 46.2293 95.674 46.2293 96.2609V102.483H43.0613V90.7435H45.2906L45.8773 92.1522C46.1119 91.9174 46.3466 91.6827 46.5813 91.4479C46.8159 91.2131 47.1679 91.0957 47.5199 90.8609C47.8719 90.7435 48.2239 90.6261 48.5759 90.5087C48.9279 90.3914 49.2799 90.3914 49.7493 90.3914C51.0399 90.5087 52.0959 90.9783 52.9173 91.8001Z" fill="#96A1AE"/>
<path d="M59.7227 102.131C58.784 101.544 57.9627 100.839 57.4933 99.9001C56.9067 98.961 56.672 97.9044 56.672 96.7305C56.672 94.9697 57.2587 93.4436 58.432 92.2697C59.6053 91.0957 61.1307 90.5088 63.008 90.5088C64.8853 90.5088 66.2933 91.0957 67.584 92.2697C68.7573 93.4436 69.344 94.9697 69.344 96.7305C69.344 98.4914 68.7573 100.017 67.4667 101.191C66.2933 102.365 64.768 102.952 62.8907 102.952C61.8347 102.952 60.6613 102.6 59.7227 102.131ZM65.2373 98.961C65.824 98.374 66.0587 97.5523 66.0587 96.6131C66.0587 95.674 65.824 94.8523 65.2373 94.2653C64.6507 93.6784 63.9467 93.3262 63.008 93.3262C62.0693 93.3262 61.3653 93.6784 60.7787 94.2653C60.192 94.8523 59.9573 95.674 59.9573 96.6131C59.9573 97.0827 60.0747 97.5523 60.192 97.9044C60.3093 98.2566 60.544 98.6088 60.7787 98.961C61.0133 99.1958 61.3653 99.4305 61.7173 99.6653C62.0693 99.9001 62.5387 99.9001 63.008 99.9001C63.9467 99.9001 64.6507 99.5479 65.2373 98.961Z" fill="#96A1AE"/>
<path d="M82.9546 92.2698C84.1279 93.4437 84.7146 94.9698 84.7146 96.7306C84.7146 98.4915 84.1279 100.018 82.9546 101.191C81.7812 102.365 80.2559 102.952 78.4959 102.952C77.0879 102.952 75.7972 102.483 74.8586 101.661L74.5066 102.6H72.1599V86.5176H75.3279V91.448C76.2666 90.8611 77.3226 90.5089 78.6133 90.5089C80.2559 90.3915 81.7812 91.0958 82.9546 92.2698ZM80.4906 98.9611C81.0773 98.3741 81.4293 97.5524 81.4293 96.6132C81.4293 96.0263 81.3119 95.4393 81.0773 94.9698C80.8426 94.5002 80.3733 94.0306 79.9039 93.7958C79.4346 93.5611 78.8479 93.3263 78.2612 93.3263C77.6746 93.3263 77.0879 93.4437 76.6186 93.7958C76.1493 94.0306 75.6799 94.5002 75.4453 94.9698C75.2106 95.4393 74.9759 96.0263 74.9759 96.6132C74.9759 97.5524 75.3279 98.2567 75.9146 98.9611C76.5012 99.548 77.3226 99.9002 78.2612 99.9002C79.1999 99.9002 79.9039 99.548 80.4906 98.9611Z" fill="#96A1AE"/>
<path d="M87.4133 86.5176H90.5813V102.6H87.4133V86.5176Z" fill="#96A1AE"/>
<path d="M105.483 97.5523H96.5654C96.6827 98.374 97.0347 98.961 97.504 99.4305C97.9734 99.9001 98.6774 100.017 99.3814 100.017C99.968 100.017 100.437 99.9001 100.789 99.6653C101.259 99.4305 101.611 99.0784 101.845 98.7262H105.248C104.779 100.017 104.075 101.074 103.019 101.778C101.963 102.483 100.789 102.952 99.3814 102.952C97.6214 102.952 96.2134 102.365 95.04 101.191C93.8667 100.017 93.28 98.4914 93.28 96.7305C93.28 96.0262 93.3974 95.3218 93.632 94.7349C93.8667 94.1479 94.1014 93.561 94.4534 92.974C94.8054 92.387 95.2747 92.0349 95.744 91.6827C96.2134 91.3305 96.8 90.9784 97.3867 90.861C97.9734 90.7436 98.6774 90.5088 99.3814 90.5088C100.555 90.5088 101.611 90.7436 102.549 91.3305C103.488 91.9175 104.192 92.6218 104.661 93.561C105.131 94.5001 105.365 95.5566 105.365 96.6131C105.483 96.9653 105.483 97.2001 105.483 97.5523ZM97.6214 93.7958C97.152 94.1479 96.8 94.7349 96.6827 95.4392H102.432C102.315 94.9697 102.08 94.5001 101.845 94.2653C101.611 93.9131 101.259 93.6784 100.907 93.561C100.555 93.4436 100.085 93.3262 99.616 93.3262C98.6774 93.2088 98.0907 93.3262 97.6214 93.7958Z" fill="#96A1AE"/>
<path d="M122.613 99.6652H116.512L115.456 102.6H111.936L117.92 87.3391H121.088L127.307 102.6H123.669L122.613 99.6652ZM117.568 96.7304H121.557L119.563 91.213L117.568 96.7304Z" fill="#96A1AE"/>
<path d="M129.419 86.5176H132.587V102.6H129.419V86.5176Z" fill="#96A1AE"/>
<path d="M147.019 92.2696C148.192 93.4435 148.779 94.9696 148.779 96.7305C148.779 98.4914 148.192 100.017 147.019 101.191C145.845 102.365 144.32 102.952 142.56 102.952C141.387 102.952 140.213 102.6 139.275 102.013V106.826H136.107V90.7435H138.219L138.805 91.8001C139.861 90.8609 141.152 90.3914 142.56 90.3914C144.32 90.3914 145.845 91.0957 147.019 92.2696ZM144.555 98.9609C145.141 98.374 145.493 97.5522 145.493 96.6131C145.493 96.0261 145.376 95.4392 145.024 94.9696C144.789 94.5001 144.32 94.0305 143.851 93.7957C143.381 93.5609 142.795 93.3261 142.208 93.3261C141.621 93.3261 141.035 93.4435 140.565 93.7957C140.096 94.0305 139.744 94.5001 139.392 94.9696C139.157 95.4392 139.04 96.0261 139.04 96.6131C139.04 97.5522 139.392 98.374 139.979 98.9609C140.565 99.5479 141.387 99.9001 142.325 99.9001C143.147 99.9001 143.968 99.5479 144.555 98.9609Z" fill="#96A1AE"/>
<path d="M162.859 97.5523H153.941C154.059 98.374 154.411 98.961 154.88 99.4305C155.349 99.9001 156.053 100.017 156.757 100.017C157.344 100.017 157.813 99.9001 158.165 99.6653C158.635 99.4305 158.987 99.0784 159.221 98.7262H162.624C162.155 100.017 161.451 101.074 160.395 101.778C159.339 102.483 158.165 102.952 156.757 102.952C154.997 102.952 153.589 102.365 152.416 101.191C151.243 100.017 150.656 98.4914 150.656 96.7305C150.656 96.0262 150.773 95.3218 151.008 94.7349C151.243 94.1479 151.477 93.561 151.829 92.974C152.181 92.5044 152.651 92.0349 153.12 91.6827C153.589 91.3305 154.176 90.9784 154.763 90.861C155.349 90.6262 156.053 90.5088 156.757 90.5088C157.931 90.5088 158.987 90.7436 159.925 91.3305C160.864 91.9175 161.568 92.6218 162.037 93.561C162.507 94.5001 162.741 95.5566 162.741 96.6131C162.859 96.9653 162.859 97.2001 162.859 97.5523ZM154.997 93.7958C154.528 94.1479 154.176 94.7349 154.059 95.4392H159.808C159.691 94.9697 159.456 94.5001 159.221 94.2653C158.987 93.9131 158.635 93.6784 158.283 93.561C157.931 93.4436 157.461 93.3262 156.992 93.3262C156.053 93.2088 155.467 93.3262 154.997 93.7958Z" fill="#96A1AE"/>
<path d="M167.2 102.365C166.496 102.013 165.909 101.544 165.44 100.839C164.971 100.252 164.853 99.4305 164.853 98.6088H167.904C167.904 98.961 168.021 99.1958 168.139 99.5479C168.256 99.7827 168.491 100.017 168.843 100.017C169.077 100.135 169.429 100.135 169.899 100.135C170.251 100.135 170.485 100.135 170.72 100.017C170.955 99.9001 171.189 99.7827 171.307 99.6653C171.424 99.4305 171.541 99.3131 171.541 99.0784C171.541 98.7262 171.307 98.4914 170.955 98.2566C170.603 98.1392 170.016 97.9044 169.195 97.7871C168.725 97.6697 168.373 97.6697 168.021 97.5523C167.669 97.4349 167.317 97.3175 166.965 97.2001C166.496 96.9653 166.144 96.8479 165.909 96.6131C165.675 96.3784 165.44 96.0262 165.205 95.674C164.971 95.3218 164.971 94.7349 164.971 94.2653C164.971 93.2088 165.44 92.2697 166.261 91.5653C167.083 90.861 168.256 90.5088 169.664 90.5088C171.072 90.5088 172.245 90.861 173.067 91.5653C173.888 92.2697 174.357 93.2088 174.357 94.3827H171.307C171.307 93.4436 170.72 92.974 169.547 92.974C169.077 92.974 168.608 93.0914 168.373 93.3262C168.139 93.561 167.904 93.7957 167.904 94.1479C167.904 94.2653 167.904 94.3827 168.021 94.5001C168.139 94.6175 168.139 94.7349 168.256 94.8523C168.373 94.9697 168.491 94.9697 168.725 95.0871C168.96 95.2044 169.195 95.2044 169.312 95.2044L170.016 95.3218C170.251 95.3218 170.485 95.4392 170.603 95.4392C170.72 95.4392 170.955 95.5566 171.189 95.5566C171.424 95.5566 171.659 95.674 171.776 95.674C171.893 95.674 172.128 95.7914 172.363 95.9088C172.597 96.0262 172.832 96.1436 172.949 96.1436C173.067 96.261 173.184 96.3784 173.419 96.4957C173.653 96.6131 173.771 96.7305 173.888 96.9653C174.005 97.0827 174.123 97.3175 174.24 97.4349C174.357 97.6697 174.357 97.7871 174.475 98.1392C174.475 98.374 174.475 98.6088 174.475 98.961C174.475 100.135 174.005 101.191 173.067 101.896C172.128 102.6 170.955 102.952 169.429 102.952C168.843 102.952 167.904 102.717 167.2 102.365Z" fill="#96A1AE"/>
</svg>
